<svg width="526.66125" height="53.473744" xmlns="http://www.w3.org/2000/svg">
 <metadata id="metadata5705">image/svg+xml</metadata>
 <defs>
  <clipPath id="clipPath5731" clipPathUnits="userSpaceOnUse">
   <path id="path5733" d="m-73.42393,83.81381l566.929,0l0,-137.979l-566.929,0l0,137.979z"/>
  </clipPath>
 </defs>
 <g>
  <title>background</title>
  <rect fill="none" id="canvas_background" height="602" width="802" y="-1" x="-1"/>
 </g>
 <g>
  <title>Layer 1</title>
  <g transform="matrix(1.25,0,0,-1.25,0,53.473658) " id="g5707">
   <path fill="#ffffff" fill-rule="evenodd" id="path5709" d="m4.41907,10.30481l32.118,0l0,-5.353l-32.118,0l0,5.353z"/>
   <path fill="#ffffff" fill-rule="evenodd" id="path5711" d="m4.41907,16.99081l32.118,0l0,-5.356l-32.118,0l0,5.356z"/>
   <path fill="#ffffff" fill-rule="evenodd" id="path5713" d="m4.41907,23.68181l32.118,0l0,-5.353l-32.118,0l0,5.353z"/>
   <path fill="#ffffff" fill-rule="evenodd" id="path5715" d="m4.41907,30.37581l32.118,0l0,-5.352l-32.118,0l0,5.352z"/>
   <path fill="#ffffff" fill-rule="evenodd" id="path5717" d="m4.41907,37.06481l32.118,0l0,-5.352l-32.118,0l0,5.352z"/>
   <g id="g5719">
    <path fill="#ffffff" fill-rule="evenodd" id="path5721" d="m37.87577,4.95141l12.047,12.04l-12.047,0l0,-12.04z"/>
   </g>
   <path fill="#ffffff" fill-rule="evenodd" id="path5723" d="m37.87607,23.68181l16.02,0l0,-5.353l-16.02,0l0,5.353z"/>
   <path fill="#ffffff" fill-rule="evenodd" id="path5725" d="m37.87607,30.37581l16.02,0l0,-5.352l-16.02,0l0,5.352z"/>
   <g id="g5727">
    <g clip-path="url(#clipPath5731)" id="g5729">
     <g id="g5735">
      <path fill="#ffffff" fill-rule="nonzero" id="path5737" d="m76.11468,11.71131c-1.215,0 -2.308,0.189 -3.247,0.562c-0.949,0.377 -1.723,0.928 -2.298,1.637c-0.406,0.516 -0.7,1.142 -0.875,1.865c-0.172,0.707 -0.259,1.825 -0.259,3.321l0,8.261c0,0.73 -0.079,1.25 -0.235,1.548c-0.134,0.256 -0.341,0.381 -0.651,0.393l-0.24,0.01l0,0.957l5.301,0l0,-0.957l-0.24,-0.01c-0.311,-0.012 -0.518,-0.134 -0.651,-0.382c-0.155,-0.29 -0.234,-0.814 -0.234,-1.559l0,-8.751c0,-1.982 0.331,-3.387 0.984,-4.175c0.642,-0.774 1.769,-1.166 3.351,-1.166c0.748,0 1.397,0.079 1.93,0.235c0.525,0.153 0.996,0.395 1.399,0.715c0.514,0.42 0.883,1.004 1.094,1.736c0.22,0.761 0.332,2.093 0.332,3.959l0,5.831c0,1.172 -0.132,2.06 -0.391,2.639c-0.241,0.538 -0.604,0.839 -1.111,0.921l-0.21,0.034l0,0.93l4.642,0l0,-0.902l-0.178,-0.054c-0.503,-0.154 -0.849,-0.473 -1.056,-0.975c-0.221,-0.538 -0.334,-1.45 -0.334,-2.713l0,-5.735c0,-1.669 -0.088,-2.945 -0.263,-3.791c-0.178,-0.867 -0.477,-1.583 -0.889,-2.13c-0.595,-0.762 -1.37,-1.334 -2.305,-1.704c-0.923,-0.365 -2.055,-0.55 -3.366,-0.55"/>
     </g>
     <g id="g5739">
      <path fill="#ffffff" fill-rule="nonzero" id="path5741" d="m100.14007,11.91501l-1.384,0l-0.075,0.104l-10.681,14.953l0,-10.82c0,-0.937 0.138,-1.678 0.409,-2.202c0.257,-0.496 0.622,-0.785 1.113,-0.882l0.202,-0.039l0,-0.923l-4.75,0l0,0.891l0.163,0.061c0.529,0.195 0.902,0.508 1.142,0.955c0.246,0.46 0.371,1.115 0.371,1.947l0,11.254c0,0.722 -0.108,1.254 -0.319,1.583c-0.197,0.304 -0.499,0.468 -0.923,0.502l-0.23,0.018l0,0.948l4.102,0l9.498,-13.331l0,7.921c0,1.604 -0.131,2.746 -0.389,3.392c-0.24,0.599 -0.637,0.944 -1.216,1.056l-0.203,0.039l0,0.923l4.439,0l0,-0.857l-0.12,-0.073c-0.423,-0.258 -0.711,-0.629 -0.881,-1.135c-0.178,-0.531 -0.268,-1.596 -0.268,-3.165l0,-13.12z"/>
     </g>
     <g id="g5743">
      <path fill="#ffffff" fill-rule="nonzero" id="path5745" d="m108.32757,12.10641l-5.301,0l0,0.941l0.236,0.014c0.319,0.019 0.529,0.145 0.66,0.398c0.153,0.293 0.23,0.805 0.23,1.519l0,12.379c0,0.73 -0.079,1.25 -0.235,1.548c-0.134,0.256 -0.341,0.381 -0.651,0.393l-0.24,0.01l0,0.957l5.301,0l0,-0.957l-0.24,-0.01c-0.311,-0.012 -0.518,-0.134 -0.651,-0.382c-0.155,-0.29 -0.234,-0.814 -0.234,-1.559l0,-12.379c0,-0.729 0.077,-1.244 0.229,-1.529c0.129,-0.244 0.337,-0.364 0.656,-0.376l0.24,-0.01l0,-0.957z"/>
     </g>
     <g id="g5747">
      <path fill="#ffffff" fill-rule="nonzero" id="path5749" d="m117.85058,11.71131l-1.859,0l-5.277,15.421c-0.231,0.677 -0.468,1.197 -0.707,1.545c-0.221,0.322 -0.469,0.536 -0.738,0.637l-0.162,0.061l0,0.89l5.23,0l0,-0.921l-0.2,-0.041c-0.218,-0.045 -0.383,-0.126 -0.49,-0.242c-0.1,-0.108 -0.148,-0.254 -0.148,-0.447c0,-0.054 0.007,-0.151 0.042,-0.304c0.03,-0.141 0.077,-0.314 0.139,-0.522l4.025,-12.021l3.446,11.054c0.043,0.15 0.076,0.312 0.098,0.478c0.023,0.17 0.034,0.337 0.034,0.501c0,0.377 -0.1,0.709 -0.305,1.017c-0.192,0.288 -0.406,0.446 -0.655,0.484l-0.213,0.032l0,0.932l4.643,0l0,-0.882l-0.152,-0.065c-0.513,-0.219 -0.949,-0.578 -1.296,-1.065c-0.357,-0.501 -0.692,-1.239 -0.995,-2.193l-4.46,-14.349z"/>
     </g>
     <g id="g5751">
      <path fill="#ffffff" fill-rule="nonzero" id="path5753" d="m138.62637,12.10641l-13.213,0l0,0.962l0.245,0.005c0.308,0.006 0.512,0.127 0.645,0.381c0.156,0.298 0.235,0.81 0.235,1.524l0,12.379c0,0.745 -0.079,1.269 -0.234,1.558c-0.133,0.249 -0.34,0.371 -0.651,0.383l-0.24,0.01l0,0.957l12.811,0l0.326,-3.901l-0.948,-0.133l-0.07,0.189c-0.343,0.935 -0.852,1.586 -1.511,1.937c-0.678,0.362 -2.061,0.546 -4.109,0.546l-0.754,0c-1.17,0 -1.402,-0.138 -1.436,-0.166c-0.03,-0.025 -0.182,-0.186 -0.182,-0.961l0,-4.778l2.301,0c1.297,0 2.215,0.119 2.726,0.354c0.487,0.224 0.817,0.608 1.012,1.177l0.058,0.169l0.836,0l0,-4.702l-0.86,0l-0.058,0.168c-0.194,0.56 -0.481,0.949 -0.855,1.156c-0.269,0.15 -0.924,0.328 -2.512,0.328l-2.648,0l0,-6.742c0,-0.942 0.194,-1.179 0.277,-1.238c0.12,-0.084 0.518,-0.224 1.856,-0.224c1.28,0 2.202,0.028 2.74,0.082c0.532,0.054 1.003,0.143 1.4,0.266c0.489,0.163 0.972,0.447 1.431,0.843c0.469,0.404 0.976,0.983 1.505,1.721l0.127,0.179l0.887,-0.474l-1.137,-3.955z"/>
     </g>
     <g id="g5755">
      <path fill="#ffffff" fill-rule="nonzero" id="path5757" d="m145.03167,21.47111c0.164,-0.026 0.345,-0.046 0.539,-0.06c0.287,-0.02 0.635,-0.029 1.043,-0.029c1.941,0 3.389,0.327 4.303,0.972c0.9,0.635 1.338,1.59 1.338,2.92c0,1.3 -0.403,2.316 -1.198,3.022c-0.803,0.713 -1.967,1.074 -3.462,1.074c-1.004,0 -1.696,-0.129 -2.057,-0.385c-0.336,-0.237 -0.506,-0.708 -0.506,-1.4l0,-6.114zm10.859,-11.503l-0.347,0.147c-1.746,0.738 -3.342,2 -4.743,3.749c-1.362,1.7 -2.515,3.838 -3.429,6.357c-0.102,-0.001 -0.229,-0.005 -0.379,-0.01c-0.259,-0.008 -0.45,-0.011 -0.57,-0.011c-0.315,0 -0.778,0.012 -1.391,0.039l0,-5.261c0,-0.729 0.079,-1.245 0.234,-1.534c0.133,-0.247 0.338,-0.365 0.647,-0.371l0.245,-0.005l0,-0.962l-5.253,0l0,0.962l0.245,0.005c0.308,0.006 0.512,0.127 0.645,0.381c0.156,0.298 0.235,0.81 0.235,1.524l0,12.379c0,0.745 -0.079,1.269 -0.234,1.558c-0.133,0.249 -0.34,0.371 -0.651,0.383l-0.24,0.01l0,0.945l4.236,0.203c0.594,0.025 1.08,0.043 1.459,0.055c0.383,0.012 0.666,0.018 0.852,0.018c2.409,0 4.36,-0.481 5.801,-1.43c1.472,-0.972 2.219,-2.283 2.219,-3.897c0,-1.192 -0.466,-2.23 -1.385,-3.086c-0.846,-0.788 -1.999,-1.339 -3.43,-1.641c0.832,-2.34 1.682,-4.317 2.528,-5.88c0.871,-1.611 1.752,-2.803 2.619,-3.545l0.087,-0.075l0,-1.007z"/>
     </g>
     <g id="g5759">
      <path fill="#ffffff" fill-rule="nonzero" id="path5761" d="m163.47018,11.71131c-1.188,0 -2.347,0.202 -3.444,0.602c-1.098,0.399 -2.104,0.987 -2.992,1.745l-0.122,0.103l1.062,3.772l0.927,-0.164l0.036,-0.163c0.33,-1.5 0.925,-2.67 1.766,-3.477c0.83,-0.796 1.849,-1.2 3.03,-1.2c1.055,0 1.919,0.299 2.568,0.887c0.649,0.59 0.965,1.338 0.965,2.287c0,0.9 -0.25,1.607 -0.765,2.158c-0.527,0.565 -1.67,1.199 -3.399,1.884l-0.67,0.263c-1.702,0.658 -2.824,1.289 -3.43,1.928c-0.441,0.465 -0.78,0.981 -1.007,1.532c-0.227,0.55 -0.342,1.14 -0.342,1.753c0,1.432 0.537,2.643 1.597,3.598c1.053,0.948 2.387,1.429 3.968,1.429c0.861,0 1.759,-0.151 2.669,-0.449c0.906,-0.297 1.837,-0.742 2.768,-1.325l0.155,-0.097l-0.895,-3.446l-0.877,0.171l-0.04,0.152c-0.305,1.184 -0.822,2.116 -1.537,2.77c-0.713,0.652 -1.525,0.97 -2.482,0.97c-0.947,0 -1.71,-0.247 -2.266,-0.734c-0.555,-0.486 -0.824,-1.111 -0.824,-1.913c0,-0.722 0.227,-1.307 0.695,-1.79c0.484,-0.499 1.471,-1.056 2.933,-1.655c0.159,-0.064 0.391,-0.16 0.696,-0.288c2.114,-0.849 3.445,-1.56 4.065,-2.171c0.469,-0.452 0.825,-0.982 1.057,-1.571c0.23,-0.588 0.347,-1.255 0.347,-1.983c0,-1.607 -0.592,-2.955 -1.758,-4.005c-1.161,-1.044 -2.66,-1.573 -4.454,-1.573"/>
     </g>
     <g id="g5763">
      <path fill="#ffffff" fill-rule="nonzero" id="path5765" d="m176.77978,12.10641l-5.301,0l0,0.941l0.236,0.014c0.319,0.019 0.529,0.145 0.66,0.398c0.153,0.293 0.23,0.805 0.23,1.519l0,12.379c0,0.73 -0.079,1.25 -0.235,1.548c-0.134,0.256 -0.341,0.381 -0.651,0.393l-0.24,0.01l0,0.957l5.301,0l0,-0.957l-0.24,-0.01c-0.311,-0.012 -0.518,-0.134 -0.651,-0.382c-0.155,-0.29 -0.234,-0.814 -0.234,-1.559l0,-12.379c0,-0.729 0.077,-1.244 0.229,-1.529c0.129,-0.244 0.337,-0.364 0.656,-0.376l0.24,-0.01l0,-0.957z"/>
     </g>
     <g id="g5767">
      <path fill="#ffffff" fill-rule="nonzero" id="path5769" d="m188.31438,12.10641l-5.349,0l0.024,0.957l0.234,0.01c0.31,0.012 0.514,0.135 0.644,0.386c0.153,0.293 0.23,0.805 0.23,1.519l0,13.457c0,0.337 -0.056,0.413 -0.059,0.416c0,0 -0.069,0.052 -0.349,0.052c-1.314,0 -2.324,-0.206 -3.003,-0.611c-0.681,-0.406 -1.321,-1.141 -1.903,-2.183l-0.11,-0.195l-0.944,0.399l1.037,3.952l13.723,0l1.038,-3.952l-0.945,-0.399l-0.109,0.196c-0.582,1.049 -1.22,1.785 -1.897,2.187c-0.676,0.402 -1.68,0.606 -2.985,0.606c-0.312,0 -0.378,-0.062 -0.379,-0.063c-0.002,-0.003 -0.065,-0.075 -0.065,-0.405l0,-13.457c0,-0.72 0.082,-1.233 0.244,-1.525c0.14,-0.253 0.35,-0.374 0.66,-0.38l0.239,-0.005l0.024,-0.962z"/>
     </g>
     <g id="g5771">
      <path fill="#ffffff" fill-rule="nonzero" id="path5773" d="m196.86068,19.20301l4.813,0l-2.317,7.645l-2.496,-7.645zm10.854,-7.097l-5.284,0l0,0.919l0.197,0.042c0.207,0.046 0.367,0.13 0.489,0.258c0.111,0.116 0.165,0.25 0.165,0.408c0,0.097 -0.034,0.321 -0.193,0.836c-0.044,0.142 -0.072,0.229 -0.094,0.293l-0.917,2.979l-5.667,0l-0.711,-2.186c-0.066,-0.221 -0.118,-0.439 -0.153,-0.646c-0.034,-0.207 -0.05,-0.386 -0.05,-0.546c0,-0.399 0.086,-0.719 0.257,-0.953c0.167,-0.23 0.409,-0.374 0.74,-0.442l0.2,-0.041l0,-0.921l-4.81,0l0,0.896l0.169,0.057c0.554,0.19 1.027,0.553 1.405,1.078c0.394,0.546 0.807,1.491 1.227,2.809l4.475,13.702l1.907,0l4.941,-15.221c0.271,-0.845 0.537,-1.465 0.79,-1.842c0.22,-0.328 0.443,-0.501 0.662,-0.512l0.231,-0.013l0.024,-0.954z"/>
     </g>
     <g id="g5775">
      <path fill="#ffffff" fill-rule="nonzero" id="path5777" d="m202.82796,31.47751l-1.463,0l-4.011,2.492c-0.276,0.177 -0.486,0.363 -0.627,0.555c-0.154,0.21 -0.233,0.433 -0.233,0.663c0,0.308 0.107,0.57 0.32,0.777c0.353,0.346 0.91,0.425 1.418,0.134c0.189,-0.107 0.427,-0.309 0.726,-0.617l3.87,-4.004z"/>
     </g>
     <g id="g5779">
      <path fill="#ffffff" fill-rule="nonzero" id="path5781" d="m223.04287,29.14251c-1.611,0 -2.257,-0.199 -2.515,-0.367c-0.341,-0.22 -0.514,-0.698 -0.514,-1.418l0,-12.667c0,-0.54 0.109,-0.902 0.324,-1.073c0.131,-0.105 0.525,-0.281 1.701,-0.281c2.579,0 4.412,0.577 5.448,1.715c1.04,1.144 1.568,3.157 1.568,5.985c0,2.742 -0.504,4.806 -1.499,6.135c-0.981,1.308 -2.499,1.971 -4.513,1.971m-0.383,-17.036l-6.773,0l0,0.962l0.245,0.005c0.307,0.006 0.512,0.127 0.644,0.381c0.157,0.297 0.236,0.81 0.236,1.524l0,12.379c0,0.744 -0.079,1.268 -0.235,1.558c-0.132,0.248 -0.339,0.371 -0.65,0.383l-0.24,0.01l0,0.949l4.168,0.128c0.297,0.007 0.591,0.013 0.885,0.017c0.291,0.004 0.659,0.007 1.099,0.007c1.284,0 2.361,-0.08 3.2,-0.238c0.847,-0.159 1.624,-0.419 2.313,-0.772c1.45,-0.737 2.612,-1.877 3.456,-3.386c0.84,-1.505 1.265,-3.212 1.265,-5.073c0,-2.751 -0.861,-4.935 -2.559,-6.493c-1.692,-1.554 -4.066,-2.341 -7.054,-2.341"/>
     </g>
     <g id="g5783">
      <path fill="#ffffff" fill-rule="nonzero" id="path5785" d="m247.34267,12.10641l-13.212,0l0,0.962l0.245,0.005c0.307,0.006 0.512,0.127 0.645,0.381c0.156,0.298 0.235,0.81 0.235,1.524l0,12.379c0,0.745 -0.079,1.269 -0.234,1.558c-0.133,0.249 -0.34,0.371 -0.651,0.383l-0.24,0.01l0,0.957l12.81,0l0.326,-3.901l-0.947,-0.133l-0.07,0.189c-0.344,0.935 -0.852,1.586 -1.511,1.937c-0.679,0.362 -2.062,0.546 -4.11,0.546l-0.754,0c-1.169,0 -1.4,-0.138 -1.435,-0.166c-0.031,-0.025 -0.182,-0.186 -0.182,-0.961l0,-4.778l2.301,0c1.297,0 2.214,0.119 2.725,0.354c0.487,0.224 0.818,0.608 1.013,1.177l0.058,0.169l0.835,0l0,-4.702l-0.86,0l-0.058,0.168c-0.194,0.56 -0.481,0.949 -0.854,1.156c-0.27,0.15 -0.926,0.328 -2.513,0.328l-2.647,0l0,-6.742c0,-0.942 0.193,-1.179 0.276,-1.238c0.12,-0.083 0.519,-0.224 1.857,-0.224c1.28,0 2.202,0.028 2.74,0.082c0.532,0.054 1.003,0.143 1.399,0.266c0.49,0.163 0.973,0.447 1.432,0.843c0.471,0.406 0.978,0.985 1.505,1.721l0.128,0.179l0.885,-0.474l-1.137,-3.955z"/>
     </g>
     <g id="g5787">
      <path fill="#ffffff" fill-rule="nonzero" id="path5789" d="m262.10049,12.10641l-12.358,0l0,0.941l0.235,0.014c0.319,0.019 0.528,0.145 0.66,0.398c0.152,0.293 0.23,0.805 0.23,1.519l0,12.379c0,0.73 -0.08,1.25 -0.236,1.548c-0.134,0.256 -0.34,0.381 -0.649,0.393l-0.24,0.01l0,0.957l5.3,0l0,-0.957l-0.24,-0.01c-0.311,-0.012 -0.518,-0.134 -0.65,-0.382c-0.156,-0.29 -0.235,-0.814 -0.235,-1.559l0,-12.451c0,-0.925 0.182,-1.16 0.259,-1.218c0.11,-0.083 0.449,-0.22 1.503,-0.22c1.253,0 2.186,0.057 2.772,0.169c0.571,0.11 1.091,0.296 1.546,0.553c0.29,0.163 0.606,0.425 0.942,0.78c0.344,0.365 0.724,0.839 1.133,1.41l0.107,0.15l0.933,-0.311l-1.012,-4.113z"/>
     </g>
     <g id="g5791">
      <path fill="#ffffff" fill-rule="nonzero" id="path5793" d="m276.64538,12.10641l-12.358,0l0,0.941l0.235,0.014c0.319,0.019 0.528,0.145 0.66,0.398c0.152,0.293 0.23,0.805 0.23,1.519l0,12.379c0,0.73 -0.08,1.25 -0.236,1.548c-0.134,0.256 -0.34,0.381 -0.649,0.393l-0.24,0.01l0,0.957l5.3,0l0,-0.957l-0.24,-0.01c-0.311,-0.012 -0.518,-0.134 -0.65,-0.382c-0.156,-0.29 -0.235,-0.814 -0.235,-1.559l0,-12.451c0,-0.925 0.182,-1.16 0.259,-1.218c0.11,-0.083 0.449,-0.22 1.503,-0.22c1.253,0 2.186,0.057 2.772,0.169c0.571,0.11 1.091,0.296 1.546,0.553c0.29,0.163 0.606,0.425 0.942,0.78c0.344,0.365 0.724,0.839 1.133,1.41l0.107,0.15l0.933,-0.311l-1.012,-4.113z"/>
     </g>
     <g id="g5795">
      <path fill="#ffffff" fill-rule="nonzero" id="path5797" d="m282.89928,19.20301l4.812,0l-2.316,7.645l-2.496,-7.645zm10.854,-7.097l-5.285,0l0,0.919l0.198,0.042c0.207,0.046 0.366,0.13 0.489,0.258c0.111,0.116 0.165,0.25 0.165,0.408c0,0.08 -0.025,0.294 -0.193,0.836c-0.039,0.124 -0.069,0.22 -0.093,0.29l-0.918,2.982l-5.667,0l-0.712,-2.186c-0.064,-0.213 -0.116,-0.432 -0.153,-0.647c-0.033,-0.2 -0.049,-0.384 -0.049,-0.545c0,-0.399 0.086,-0.719 0.257,-0.954c0.167,-0.229 0.408,-0.373 0.74,-0.441l0.2,-0.041l0,-0.921l-4.811,0l0,0.896l0.169,0.057c0.561,0.192 1.021,0.544 1.406,1.078c0.395,0.549 0.807,1.494 1.226,2.809l4.475,13.702l1.908,0l0.056,-0.173l4.884,-15.048c0.272,-0.845 0.538,-1.465 0.792,-1.842c0.219,-0.328 0.442,-0.501 0.661,-0.512l0.23,-0.013l0.025,-0.954z"/>
     </g>
     <g id="g5799">
      <path fill="#ffffff" fill-rule="nonzero" id="path5801" d="m309.99206,11.71131c-2.442,0 -4.428,0.827 -5.902,2.459c-1.469,1.622 -2.213,3.808 -2.213,6.495c0,1.682 0.281,3.234 0.837,4.612c0.557,1.382 1.391,2.583 2.477,3.57c0.618,0.57 1.388,1.018 2.287,1.332c1.766,0.616 3.763,0.65 5.822,-0.059c1.008,-0.348 2.068,-0.886 3.15,-1.596l0.157,-0.104l-1.042,-3.353l-0.927,0.138l-0.048,0.148c-0.431,1.329 -1.063,2.352 -1.88,3.04c-0.807,0.68 -1.794,1.025 -2.935,1.025c-1.49,0 -2.663,-0.641 -3.584,-1.958c-0.927,-1.328 -1.396,-3.127 -1.396,-5.347c0,-2.504 0.601,-4.574 1.788,-6.152c1.185,-1.581 2.653,-2.349 4.487,-2.349c1.05,0 2.026,0.262 2.901,0.779c0.885,0.524 1.721,1.33 2.486,2.397l0.144,0.201l0.838,-0.589l-0.123,-0.2c-0.934,-1.528 -2.006,-2.67 -3.183,-3.392c-1.183,-0.728 -2.577,-1.097 -4.141,-1.097"/>
     </g>
     <g id="g5803">
      <path fill="#ffffff" fill-rule="nonzero" id="path5805" d="m321.33877,19.20301l4.814,0l-2.318,7.645l-2.496,-7.645zm10.855,-7.097l-5.284,0l0,0.919l0.198,0.042c0.207,0.046 0.366,0.13 0.489,0.258c0.109,0.116 0.163,0.25 0.163,0.408c0,0.096 -0.033,0.32 -0.192,0.837l-1.012,3.271l-5.667,0l-0.709,-2.186c-0.07,-0.227 -0.121,-0.446 -0.153,-0.645c-0.036,-0.212 -0.052,-0.391 -0.052,-0.547c0,-0.399 0.087,-0.719 0.258,-0.953c0.168,-0.23 0.409,-0.375 0.739,-0.442l0.2,-0.041l0,-0.921l-4.809,0l0,0.896l0.169,0.057c0.555,0.19 1.027,0.553 1.404,1.078c0.392,0.543 0.805,1.488 1.228,2.809l4.475,13.702l1.906,0l0.056,-0.173l4.885,-15.048c0.271,-0.845 0.537,-1.465 0.791,-1.842c0.219,-0.328 0.442,-0.501 0.663,-0.512l0.23,-0.013l0.024,-0.954z"/>
     </g>
     <g id="g5807">
      <path fill="#ffffff" fill-rule="nonzero" id="path5809" d="m345.17077,12.10641l-12.358,0l0,0.941l0.235,0.014c0.319,0.019 0.528,0.145 0.66,0.398c0.152,0.293 0.23,0.805 0.23,1.519l0,12.379c0,0.73 -0.08,1.25 -0.236,1.548c-0.134,0.256 -0.34,0.381 -0.649,0.393l-0.24,0.01l0,0.957l5.3,0l0,-0.957l-0.24,-0.01c-0.311,-0.012 -0.518,-0.134 -0.65,-0.382c-0.156,-0.29 -0.235,-0.814 -0.235,-1.559l0,-12.451c0,-0.925 0.182,-1.16 0.259,-1.218c0.11,-0.083 0.449,-0.22 1.503,-0.22c1.253,0 2.186,0.057 2.772,0.169c0.571,0.11 1.091,0.296 1.546,0.553c0.29,0.163 0.606,0.425 0.942,0.78c0.344,0.365 0.724,0.839 1.133,1.41l0.107,0.15l0.933,-0.311l-1.012,-4.113z"/>
     </g>
     <g id="g5811">
      <path fill="#ffffff" fill-rule="nonzero" id="path5813" d="m350.95788,19.20301l4.814,0l-2.318,7.645l-2.496,-7.645zm10.855,-7.097l-5.284,0l0,0.919l0.198,0.042c0.207,0.046 0.366,0.13 0.489,0.258c0.109,0.116 0.163,0.25 0.163,0.408c0,0.096 -0.033,0.32 -0.192,0.837l-1.012,3.271l-5.667,0l-0.709,-2.186c-0.07,-0.227 -0.121,-0.446 -0.153,-0.645c-0.036,-0.212 -0.052,-0.391 -0.052,-0.547c0,-0.399 0.087,-0.719 0.258,-0.953c0.168,-0.23 0.409,-0.375 0.739,-0.442l0.2,-0.041l0,-0.921l-4.809,0l0,0.896l0.169,0.057c0.555,0.19 1.027,0.553 1.404,1.078c0.392,0.543 0.805,1.488 1.228,2.809l4.475,13.702l1.906,0l0.056,-0.173l4.885,-15.048c0.271,-0.845 0.537,-1.465 0.791,-1.842c0.219,-0.328 0.442,-0.501 0.663,-0.512l0.23,-0.013l0.024,-0.954z"/>
     </g>
     <g id="g5815">
      <path fill="#ffffff" fill-rule="nonzero" id="path5817" d="m366.43938,22.41151l1.318,0c1.96,0 3.366,0.265 4.175,0.786c0.785,0.507 1.167,1.331 1.167,2.52c0,1.119 -0.352,1.953 -1.077,2.548c-0.729,0.598 -1.794,0.901 -3.163,0.901c-1.29,0 -1.805,-0.173 -2.01,-0.318c-0.268,-0.191 -0.41,-0.698 -0.41,-1.467l0,-4.97zm0,-1.23l0,-6.227c0,-0.973 0.205,-1.266 0.327,-1.354c0.137,-0.099 0.574,-0.264 1.974,-0.264c1.705,0 2.969,0.322 3.757,0.957c0.773,0.621 1.165,1.614 1.165,2.948c0,1.328 -0.38,2.325 -1.129,2.963c-0.759,0.648 -1.954,0.977 -3.555,0.977l-2.539,0zm2.646,-9.075l-6.773,0l0,0.962l0.245,0.005c0.307,0.005 0.512,0.127 0.645,0.381c0.156,0.297 0.235,0.81 0.235,1.524l0,12.379c0,0.744 -0.079,1.268 -0.234,1.558c-0.133,0.248 -0.34,0.371 -0.651,0.383l-0.24,0.009l0,0.951l4.098,0.103c0.44,0.008 0.902,0.017 1.388,0.029c0.493,0.012 0.766,0.019 0.821,0.019c2.161,0 3.95,-0.432 5.315,-1.283c1.405,-0.875 2.118,-2.014 2.118,-3.385c0,-1.013 -0.411,-1.888 -1.221,-2.601c-0.612,-0.536 -1.444,-0.971 -2.481,-1.299c1.185,-0.344 2.161,-0.874 2.911,-1.581c0.962,-0.908 1.449,-2.008 1.449,-3.271c0,-1.585 -0.675,-2.814 -2.007,-3.653c-1.296,-0.817 -3.186,-1.23 -5.618,-1.23"/>
     </g>
     <g id="g5819">
      <path fill="#ffffff" fill-rule="nonzero" id="path5821" d="m382.11117,21.47111c0.163,-0.027 0.344,-0.046 0.538,-0.06c0.287,-0.02 0.635,-0.029 1.044,-0.029c1.94,0 3.388,0.327 4.304,0.972c0.899,0.635 1.337,1.591 1.337,2.92c0,1.3 -0.403,2.316 -1.198,3.022c-0.803,0.713 -1.968,1.074 -3.462,1.074c-1.004,0 -1.696,-0.129 -2.057,-0.385c-0.336,-0.236 -0.506,-0.707 -0.506,-1.4l0,-6.114zm10.859,-11.503l-0.347,0.147c-1.747,0.739 -3.344,2 -4.744,3.749c-1.361,1.699 -2.513,3.837 -3.427,6.357c-0.103,-0.001 -0.23,-0.005 -0.38,-0.01c-0.26,-0.008 -0.449,-0.011 -0.57,-0.011c-0.315,0 -0.779,0.012 -1.391,0.039l0,-5.261c0,-0.729 0.079,-1.245 0.234,-1.534c0.133,-0.247 0.338,-0.365 0.646,-0.371l0.245,-0.005l0,-0.962l-5.252,0l0,0.962l0.245,0.005c0.307,0.006 0.512,0.127 0.645,0.381c0.156,0.298 0.235,0.81 0.235,1.524l0,12.379c0,0.745 -0.079,1.269 -0.234,1.558c-0.133,0.249 -0.34,0.371 -0.651,0.383l-0.24,0.01l0,0.945l4.236,0.203c0.593,0.025 1.079,0.043 1.459,0.055c0.382,0.012 0.666,0.018 0.852,0.018c2.409,0 4.36,-0.481 5.8,-1.431c1.472,-0.971 2.219,-2.282 2.219,-3.896c0,-1.191 -0.465,-2.23 -1.383,-3.086c-0.848,-0.788 -2,-1.339 -3.431,-1.641c0.829,-2.335 1.679,-4.313 2.528,-5.88c0.869,-1.609 1.75,-2.802 2.619,-3.545l0.087,-0.075l0,-1.007z"/>
     </g>
     <g id="g5823">
      <path fill="#ffffff" fill-rule="nonzero" id="path5825" d="m399.02718,12.10641l-5.301,0l0,0.941l0.236,0.014c0.32,0.019 0.53,0.145 0.662,0.398c0.152,0.293 0.229,0.805 0.229,1.519l0,12.379c0,0.73 -0.079,1.25 -0.235,1.548c-0.134,0.256 -0.341,0.381 -0.652,0.393l-0.24,0.01l0,0.957l5.301,0l0,-0.957l-0.24,-0.01c-0.311,-0.012 -0.518,-0.134 -0.651,-0.383c-0.155,-0.289 -0.234,-0.813 -0.234,-1.558l0,-12.379c0,-0.729 0.077,-1.244 0.229,-1.529c0.129,-0.244 0.338,-0.364 0.656,-0.376l0.24,-0.01l0,-0.957z"/>
     </g>
     <g id="g5827">
      <path fill="#ffffff" fill-rule="nonzero" id="path5829" d="m404.97158,19.20301l4.814,0l-2.318,7.645l-2.496,-7.645zm10.855,-7.097l-5.284,0l0,0.919l0.198,0.042c0.207,0.046 0.366,0.13 0.489,0.258c0.109,0.116 0.163,0.25 0.163,0.408c0,0.096 -0.033,0.32 -0.192,0.837l-1.012,3.271l-5.667,0l-0.709,-2.186c-0.07,-0.227 -0.121,-0.446 -0.153,-0.645c-0.036,-0.212 -0.052,-0.391 -0.052,-0.547c0,-0.399 0.087,-0.719 0.258,-0.953c0.168,-0.23 0.409,-0.375 0.739,-0.442l0.2,-0.041l0,-0.921l-4.809,0l0,0.896l0.169,0.057c0.555,0.19 1.027,0.553 1.404,1.078c0.392,0.543 0.805,1.488 1.228,2.809l4.475,13.702l1.906,0l0.056,-0.173l4.885,-15.048c0.271,-0.845 0.537,-1.465 0.791,-1.842c0.219,-0.328 0.442,-0.501 0.663,-0.512l0.23,-0.013l0.024,-0.954z"/>
     </g>
     <path fill="#ffffff" fill-rule="nonzero" id="path5831" d="m62.15607,4.95181l-0.5,0l0,32.113l0.5,0l0,-32.113z"/>
     <path fill="#ffffff" fill-rule="nonzero" id="path5833" d="m61.90607,5.45081l355.523,0l0,-0.5l-355.523,0l0,0.5z"/>
    </g>
   </g>
  </g>
 </g>
</svg>